<mxfile host="app.diagrams.net" modified="2021-01-06T13:31:27.928Z" agent="5.0 (Macintosh; Intel Mac OS X 10_15_7) AppleWebKit/537.36 (KHTML, like Gecko) Chrome/87.0.4280.88 Safari/537.36" etag="rMFS9ja1tGd81iq5NytC" version="14.1.8" type="github">
  <diagram id="xm4Qvdjr61XccxN-QG44" name="Page-1">
    <mxGraphModel dx="1257" dy="786" grid="1" gridSize="10" guides="1" tooltips="1" connect="1" arrows="1" fold="1" page="1" pageScale="1" pageWidth="827" pageHeight="1169" math="0" shadow="0">
      <root>
        <mxCell id="0" />
        <mxCell id="1" parent="0" />
        <mxCell id="ldpD27MEibo8axFT_H9j-7" value="" style="edgeStyle=orthogonalEdgeStyle;rounded=0;orthogonalLoop=1;jettySize=auto;html=1;" edge="1" parent="1" source="ldpD27MEibo8axFT_H9j-1" target="ldpD27MEibo8axFT_H9j-6">
          <mxGeometry relative="1" as="geometry" />
        </mxCell>
        <mxCell id="ldpD27MEibo8axFT_H9j-1" value="事件模块" style="rounded=0;whiteSpace=wrap;html=1;" vertex="1" parent="1">
          <mxGeometry x="170" y="240" width="100" height="40" as="geometry" />
        </mxCell>
        <mxCell id="ldpD27MEibo8axFT_H9j-2" value="事件列表(atlas_event)" style="rounded=0;whiteSpace=wrap;html=1;" vertex="1" parent="1">
          <mxGeometry x="340" y="140" width="100" height="40" as="geometry" />
        </mxCell>
        <mxCell id="ldpD27MEibo8axFT_H9j-3" value="指标模块 - 事件指标" style="rounded=0;whiteSpace=wrap;html=1;" vertex="1" parent="1">
          <mxGeometry x="480" y="90" width="140" height="40" as="geometry" />
        </mxCell>
        <mxCell id="ldpD27MEibo8axFT_H9j-4" value="" style="endArrow=classic;html=1;exitX=1;exitY=0.5;exitDx=0;exitDy=0;entryX=0;entryY=0.5;entryDx=0;entryDy=0;" edge="1" parent="1" source="ldpD27MEibo8axFT_H9j-1" target="ldpD27MEibo8axFT_H9j-2">
          <mxGeometry width="50" height="50" relative="1" as="geometry">
            <mxPoint x="300" y="360" as="sourcePoint" />
            <mxPoint x="350" y="310" as="targetPoint" />
            <Array as="points">
              <mxPoint x="270" y="160" />
            </Array>
          </mxGeometry>
        </mxCell>
        <mxCell id="ldpD27MEibo8axFT_H9j-5" value="" style="endArrow=classic;html=1;exitX=1;exitY=0;exitDx=0;exitDy=0;entryX=0;entryY=0.5;entryDx=0;entryDy=0;" edge="1" parent="1" source="ldpD27MEibo8axFT_H9j-2" target="ldpD27MEibo8axFT_H9j-3">
          <mxGeometry width="50" height="50" relative="1" as="geometry">
            <mxPoint x="280" y="270" as="sourcePoint" />
            <mxPoint x="350" y="170" as="targetPoint" />
          </mxGeometry>
        </mxCell>
        <mxCell id="ldpD27MEibo8axFT_H9j-9" value="" style="edgeStyle=orthogonalEdgeStyle;rounded=0;orthogonalLoop=1;jettySize=auto;html=1;" edge="1" parent="1" source="ldpD27MEibo8axFT_H9j-6" target="ldpD27MEibo8axFT_H9j-8">
          <mxGeometry relative="1" as="geometry" />
        </mxCell>
        <mxCell id="ldpD27MEibo8axFT_H9j-6" value="新增事件(atlas_event)" style="rounded=0;whiteSpace=wrap;html=1;" vertex="1" parent="1">
          <mxGeometry x="340" y="200" width="100" height="40" as="geometry" />
        </mxCell>
        <mxCell id="ldpD27MEibo8axFT_H9j-8" value="决策模块(atlas_risk_strategy)" style="rounded=0;whiteSpace=wrap;html=1;" vertex="1" parent="1">
          <mxGeometry x="520" y="160" width="110" height="40" as="geometry" />
        </mxCell>
        <mxCell id="ldpD27MEibo8axFT_H9j-12" value="" style="edgeStyle=orthogonalEdgeStyle;rounded=0;orthogonalLoop=1;jettySize=auto;html=1;" edge="1" parent="1" source="ldpD27MEibo8axFT_H9j-10" target="ldpD27MEibo8axFT_H9j-8">
          <mxGeometry relative="1" as="geometry" />
        </mxCell>
        <mxCell id="ldpD27MEibo8axFT_H9j-10" value="修改事件(atlas_event)" style="rounded=0;whiteSpace=wrap;html=1;" vertex="1" parent="1">
          <mxGeometry x="340" y="250" width="100" height="40" as="geometry" />
        </mxCell>
        <mxCell id="ldpD27MEibo8axFT_H9j-11" value="" style="edgeStyle=orthogonalEdgeStyle;rounded=0;orthogonalLoop=1;jettySize=auto;html=1;exitX=1;exitY=0.5;exitDx=0;exitDy=0;entryX=0;entryY=0.5;entryDx=0;entryDy=0;" edge="1" parent="1" source="ldpD27MEibo8axFT_H9j-1" target="ldpD27MEibo8axFT_H9j-10">
          <mxGeometry relative="1" as="geometry">
            <mxPoint x="280" y="270" as="sourcePoint" />
            <mxPoint x="350" y="230" as="targetPoint" />
          </mxGeometry>
        </mxCell>
        <mxCell id="ldpD27MEibo8axFT_H9j-18" value="" style="edgeStyle=orthogonalEdgeStyle;rounded=0;orthogonalLoop=1;jettySize=auto;html=1;entryX=0;entryY=0.5;entryDx=0;entryDy=0;" edge="1" parent="1" source="ldpD27MEibo8axFT_H9j-13" target="ldpD27MEibo8axFT_H9j-19">
          <mxGeometry relative="1" as="geometry" />
        </mxCell>
        <mxCell id="ldpD27MEibo8axFT_H9j-13" value="事件详情(atlas_event)" style="rounded=0;whiteSpace=wrap;html=1;" vertex="1" parent="1">
          <mxGeometry x="340" y="320" width="100" height="40" as="geometry" />
        </mxCell>
        <mxCell id="ldpD27MEibo8axFT_H9j-14" value="" style="edgeStyle=orthogonalEdgeStyle;rounded=0;orthogonalLoop=1;jettySize=auto;html=1;exitX=1;exitY=0.75;exitDx=0;exitDy=0;entryX=0;entryY=0.5;entryDx=0;entryDy=0;" edge="1" parent="1" source="ldpD27MEibo8axFT_H9j-1" target="ldpD27MEibo8axFT_H9j-13">
          <mxGeometry relative="1" as="geometry">
            <mxPoint x="280" y="270" as="sourcePoint" />
            <mxPoint x="350" y="280" as="targetPoint" />
            <Array as="points">
              <mxPoint x="270" y="340" />
            </Array>
          </mxGeometry>
        </mxCell>
        <mxCell id="ldpD27MEibo8axFT_H9j-17" value="策略列表(atlas_risk_strategy)" style="rounded=0;whiteSpace=wrap;html=1;" vertex="1" parent="1">
          <mxGeometry x="510" y="290" width="110" height="40" as="geometry" />
        </mxCell>
        <mxCell id="ldpD27MEibo8axFT_H9j-19" value="规则列表(atlas_feature)" style="rounded=0;whiteSpace=wrap;html=1;" vertex="1" parent="1">
          <mxGeometry x="510" y="350" width="110" height="40" as="geometry" />
        </mxCell>
        <mxCell id="ldpD27MEibo8axFT_H9j-20" value="" style="edgeStyle=orthogonalEdgeStyle;rounded=0;orthogonalLoop=1;jettySize=auto;html=1;entryX=0;entryY=0.5;entryDx=0;entryDy=0;exitX=1;exitY=0.5;exitDx=0;exitDy=0;" edge="1" parent="1" source="ldpD27MEibo8axFT_H9j-13" target="ldpD27MEibo8axFT_H9j-17">
          <mxGeometry relative="1" as="geometry">
            <mxPoint x="450" y="350" as="sourcePoint" />
            <mxPoint x="520" y="380" as="targetPoint" />
          </mxGeometry>
        </mxCell>
      </root>
    </mxGraphModel>
  </diagram>
</mxfile>
